# xmcd CD database file
#
# Track frame offsets:
#	182
#	23830
#	43345
#	64400
#	83395
#	101145
#	114645
#	135057
#	152957
#	171870
#	193045
#
# Disc length: 2808 seconds
#
# Revision: 0
# Processed by: cddbd v1.4PL0 Copyright (c) Steve Scherf et al.
# Submitted via: Feurio! 1.65 - http://www.feurio.com
#
DISCID=8f0af60b
DTITLE=Rita Coolidge - Fire Me Back-1990
DYEAR=1990
DGENRE=country rock
TTITLE0=I'm Still Learning About Love
TTITLE1=I Stand In Wonder
TTITLE2=Tattler
TTITLE3=Bed Of Roses
TTITLE4=Someday
TTITLE5=Hello Blues
TTITLE6=Fascination
TTITLE7=That's Just The Way Love Is
TTITLE8=Old Fashioned Heart
TTITLE9=Fire Me Back
TTITLE10=I Would Not Change A Thing
EXTD=AAD-ATTIC-Metronome-1990
EXTT0=
EXTT1=
EXTT2=
EXTT3=
EXTT4=
EXTT5=
EXTT6=
EXTT7=
EXTT8=
EXTT9=
EXTT10=
PLAYORDER=
